<svg xmlns="http://www.w3.org/2000/svg" viewBox="0 0 100 100">
  <rect x="15" y="15" width="20" height="20" fill="#2196F3" />
  <rect x="40" y="15" width="20" height="20" fill="#2196F3" />
  <rect x="15" y="40" width="20" height="20" fill="#2196F3" />
  <rect x="40" y="40" width="20" height="20" fill="#2196F3" />
  <rect x="65" y="15" width="20" height="10" fill="#2196F3" />
  <rect x="65" y="30" width="10" height="10" fill="#2196F3" />
  <rect x="80" y="30" width="5" height="10" fill="#2196F3" />
  <rect x="65" y="45" width="10" height="10" fill="#2196F3" />
  <rect x="80" y="45" width="5" height="20" fill="#2196F3" />
  <rect x="15" y="65" width="10" height="20" fill="#2196F3" />
  <rect x="30" y="65" width="10" height="20" fill="#2196F3" />
  <rect x="45" y="65" width="20" height="10" fill="#2196F3" />
  <rect x="65" y="70" width="10" height="10" fill="#2196F3" />
  <rect x="80" y="70" width="5" height="5" fill="#2196F3" />
  <rect x="45" y="80" width="10" height="5" fill="#2196F3" />
</svg>
